/* XPM */
static char * browse_xpm[] = {
"16 16 8 1",
" 	c None",
".	c #7F7F7F",
"+	c #BFBFBF",
"@	c #FFFF00",
"#	c #7F7F00",
"$	c #000000",
"%	c #00FFFF",
"&	c #00007F",
"  .....         ",
" .+@+@+.        ",
".+@+@+@+......  ",
".++++++++++++#$ ",
".+@+..$.@+@+@#$ ",
".++.+%+$.@+@+#$ ",
".+.+%+%+$.@+@#$ ",
".+.%+%+%$#+@+#$ ",
".+.+%+%+$#@+@#$ ",
".++.+%+$.##@+#$ ",
".+@+.$$.+&&#@#$ ",
".#######&%&&##$ ",
" $$$$$$$$&%&&$  ",
"          &%&&$ ",
"           &%&$ ",
"            &&  "};
