/* XPM */
static char * file_psd_xpm[] = {
"16 16 4 1",
" 	c None",
".	c #000000",
"+	c #FFF8FF",
"@	c #FFF800",
"   ...........  ",
"   .+++++++++.  ",
"   .+++++++++...",
"   .+++++++++++.",
"................",
".@@@@@@@@@@@@@@.",
".@..@@@..@@..@@.",
".@.@.@.@@.@.@.@.",
".@..@@@..@@.@.@.",
".@.@@@.@@.@.@.@.",
".@.@@@@..@@..@@.",
".@@@@@@@@@@@@@@.",
"................",
"   .+++++++++++.",
"   .+++++++++++.",
"   ............."};
