/* XPM */
static char * file_xwd_xpm[] = {
"16 16 4 1",
" 	c None",
".	c #000000",
"+	c #FFF8FF",
"@	c #23C4ED",
"   ...........  ",
"   .+++++++++.  ",
"   .+++++++++...",
"   .+++++++++++.",
"................",
".@@@@@@@@@@@@@@.",
".@.@.@.@@.@..@@.",
".@.@.@.@@.@.@.@.",
".@@.@@....@.@.@.",
".@.@.@....@.@.@.",
".@.@.@.@@.@..@@.",
".@@@@@@@@@@@@@@.",
"................",
"   .+++++++++++.",
"   .+++++++++++.",
"   ............."};
