/* XPM */
static char * folder_expanded_xpm[] = {
"16 12 5 1",
" 	c None",
".	c #000000",
"+	c #BFB8BF",
"@	c #FFF8FF",
"#	c #FFF800",
"  .....         ",
" .+++++.        ",
"..+++++.......  ",
".+.....+++++++. ",
".+++++++++++++. ",
".++.............",
".+..@#@#@#@#@#@.",
".+.@#@#@#@#@#@#.",
"...#@#@#@#@#@#..",
"..#@#@#@#@#@#.. ",
".#@#@#@#@#@#@.  ",
"..............  "};
