/* XPM */
static char *gtksee_xpm[] = {
/* columns rows colors chars-per-pixel */
"155 40 257 2",
"   c black",
".  c #25252D2D2D2D",
"X  c #2BE3328E34C7",
"o  c #2D0235E039BA",
"O  c #2DAE39793E3E",
"+  c #272731313232",
"@  c #329237173919",
"#  c #348D3A6B3CBD",
"$  c #3A6D3D143D9A",
"%  c #33CB3DA64272",
"&  c #3BD33EED4187",
"*  c #31313F3F4848",
"=  c #3CE740963EE9",
"-  c #2ED9499F54FF",
";  c #363641F946B4",
":  c #359C44334B06",
">  c #3CE34164433C",
",  c #3AB245674C19",
"<  c #3D2848DE4DE3",
"1  c #35064BD7556C",
"2  c #34C34DA358AE",
"3  c #3C504BCC53A2",
"4  c #3ABB4EB559C0",
"5  c #360B51915D07",
"6  c #3C4552E45D3B",
"7  c #3C3C51515757",
"8  c #3C2755E561DC",
"9  c #3E3E59AF65BB",
"0  c #3E3E5B5B6868",
"q  c #40C13F3F41C2",
"w  c #414140C13F3F",
"e  c #43EB44444478",
"r  c #43CC467948F3",
"t  c #44D04A4A4C7B",
"y  c #4966472A469C",
"u  c #48C946C74949",
"i  c #497448734747",
"p  c #4C034B824B59",
"a  c #42984E4E54E3",
"s  c #4B7E4F4F51B8",
"d  c #42424F4F5959",
"f  c #4F4F50D14ECF",
"g  c #4427513456E5",
"h  c #430953A75C3C",
"j  c #458558985F5F",
"k  c #4CCD517C543F",
"l  c #4B6D55775A6B",
"z  c #4D4D59595E5E",
"x  c #50904EAE4E6E",
"c  c #50A64F4F5050",
"v  c #515151514F4F",
"b  c #5442542C5401",
"n  c #53A0563C58F2",
"m  c #54EE59F35C5C",
"M  c #58EB56E95631",
"N  c #590358585701",
"B  c #5BE95C1A5C05",
"V  c #575757D85757",
"C  c #430056346183",
"Z  c #43F15AC864EE",
"A  c #44A75E0269D9",
"S  c #4B835C5464B4",
"D  c #4A045E7569D2",
"F  c #484857576060",
"G  c #537B5D856314",
"H  c #5C315EB46161",
"J  c #5F5F61615F5F",
"K  c #459B61726CD3",
"L  c #4B7962626C70",
"P  c #4BF865E071F7",
"I  c #4DCE692474EB",
"U  c #4E296C47799E",
"Y  c #474762E371F2",
"T  c #5555616166BC",
"R  c #533564336C62",
"E  c #5C4261C86532",
"W  c #5B7B65C56B0B",
"Q  c #59AF68686D6D",
"!  c #521B66C27183",
"~  c #523C6A387500",
"^  c #538D6E347AC5",
"/  c #5B866CCC74FF",
"(  c #5AB06EC47979",
")  c #595967677070",
"_  c #548A719A7DF7",
"`  c #5C41730E7D6F",
"'  c #60605F5F5F5F",
"]  c #60605E5E6161",
"[  c #60E160605F5F",
"{  c #63C5641C645A",
"}  c #622266266969",
"|  c #62EE69F56D10",
" . c #68A867676929",
".. c #69BF69136767",
"X. c #6B946BC36BD7",
"o. c #62876D5B72F3",
"O. c #6B6B6EEF7272",
"+. c #640E70C67676",
"@. c #628774997D34",
"#. c #6DAD71B17434",
"$. c #6BB175757B1E",
"%. c #6BEC78F97DFE",
"&. c #676778787F7F",
"*. c #70706E6E7171",
"=. c #735D737A7389",
"-. c #72D977447A13",
";. c #750E7A137C96",
":. c #79CF78787777",
">. c #7BA77BCC7BE2",
",. c #562D74D382D3",
"<. c #575778788585",
"1. c #5B3B7640828D",
"2. c #5CD7799B85C8",
"3. c #5CD47CAF8B0B",
"4. c #63997A7A84C8",
"5. c #63D47E0D8A4C",
"6. c #6C477BD7834C",
"7. c #67A77C3C8747",
"8. c #72F37D7D8282",
"9. c #7BFC7F2980D6",
"0. c #7F2980807F29",
"q. c #5F5F80808F8F",
"w. c #5F5F82829191",
"e. c #643981AC8E4E",
"r. c #6C8A82BE8CB9",
"t. c #686880808787",
"y. c #6411852A93C5",
"u. c #66E788C896D6",
"i. c #6A6A864D935A",
"p. c #6B9689DF9640",
"a. c #6A5F8C019B65",
"s. c #671189DF9A44",
"d. c #6DC390E69F49",
"f. c #777782828787",
"g. c #73D684708CDB",
"h. c #7D0B82108484",
"j. c #7C4385BE8AFC",
"k. c #7CEA88F68E45",
"l. c #723286C69111",
"z. c #73738A5794C7",
"x. c #72AB8E389A28",
"c. c #7B148C0393D8",
"v. c #79FA8F8F99D9",
"b. c #75D591719D7D",
"n. c #7BF792929CFB",
"m. c #6B6B8F8FA0A0",
"M. c #6DB3927BA374",
"N. c #6F6F9595A8A8",
"B. c #729A94A8A41A",
"V. c #73E19AE3AD88",
"C. c #7B7B9717A2E2",
"Z. c #7BBB9959A5E5",
"A. c #7CDC9C5CAA2A",
"S. c #78F99E1EB0B0",
"D. c #7E7EA1A1AEAE",
"F. c #7BA6A4FAB838",
"G. c #80807F7F7F7F",
"H. c #81817F7F8282",
"J. c #840F841B8478",
"K. c #821B86ED89F0",
"L. c #859F89D68BA5",
"P. c #888887878787",
"I. c #8BBA8C008C0F",
"U. c #898987878B8B",
"Y. c #83E38F2F9515",
"T. c #88888E8E9191",
"R. c #84BD94949C0D",
"E. c #8CD591ED94B9",
"W. c #8B8B95C89B68",
"Q. c #890996169B9B",
"!. c #91118E8E9111",
"~. c #936393899405",
"^. c #935396969919",
"/. c #959599D99C31",
"(. c #9C879C929CCF",
"). c #991997179898",
"_. c #825D9772A158",
"`. c #85459AEAA504",
"'. c #84CD9E0BA984",
"]. c #8B8B9CE9A53E",
"[. c #8A0A9F9FA9A9",
"{. c #95959D5DA161",
"}. c #9C9C9F49A1A1",
"|. c #852FA277AF04",
" X c #8CC7A267AC35",
".X c #83D9ABABBDA0",
"XX c #8917A650B324",
"oX c #9393A47FAC3E",
"OX c #9C63A285A5A5",
"+X c #9C69A5A5AA77",
"@X c #9C9CA8A8ACAC",
"#X c #94B4AB6BB555",
"$X c #99BEABD0B4B4",
"%X c #94D4AAEAB535",
"&X c #9C9CB272BBDB",
"*X c #A3A3A3D3A3F9",
"=X c #A1A1A6FCA8FE",
"-X c #A565A969ABAB",
";X c #AB85AB8EABBE",
":X c #A8A8A7A7A6A6",
">X c #A6A6AE6EB2B2",
",X c #A3CBB4C8BCF7",
"<X c #AEAEB244B46B",
"1X c #ABABB5F5BA7A",
"2X c #B1B1B0B0AFAF",
"3X c #B444B494B494",
"4X c #B3E6B784B91F",
"5X c #B59BB96CBA87",
"6X c #B8B8B7B7B7B7",
"7X c #BBE1BC2CBC5A",
"8X c #8282ADADC2C2",
"9X c #8888B4B4C9C9",
"0X c #8D0DBBBBD2D2",
"qX c #9842B4B4C1C1",
"wX c #A262B737C100",
"eX c #A673BABAC3F6",
"rX c #ACACBEBEC670",
"tX c #AB00BFBFC9C9",
"yX c #A626BEBEC8C8",
"uX c #B4B4BEBEC3F6",
"iX c #BDBDBF3FC0C0",
"pX c #AC6CC1C1CB4B",
"aX c #A7A7C1C1CDCD",
"sX c #B39FC59DCD6A",
"dX c #BF07C1E6C2C2",
"fX c #BC89C760CC32",
"gX c #B5B5CB0AD454",
"hX c #BB10CC21D328",
"jX c #BC97D2ADDB92",
"kX c #C141BF3FBEFE",
"lX c #C413C449C469",
"zX c #C6C6CA4ACB6B",
"xX c #CC2DCC97CCC4",
"cX c #C3C3C646C949",
"vX c #CC32CFCFD238",
"bX c #C4C4CFCFD5D5",
"nX c #C499D656DDB2",
"mX c #CECED1A2D2E9",
"MX c #CCCCD709DB74",
"NX c #CB20D6D6DBDB",
"BX c #D1D1CECECE4E",
"VX c #D402D419D46F",
"CX c #D664D9BCDB69",
"ZX c #DBACDB95DC0A",
"AX c #D6D6D882D8D8",
"SX c #CD77DD32E338",
"DX c #D62BDDDDE237",
"FX c #DE1DDE5EE1A1",
"GX c #CECEE2E2EBEB",
"HX c #D26BE2E2EAEA",
"JX c #DDDDE221E423",
"KX c #D9D9E5A5EB2A",
"LX c #E1E1DFDFE0E0",
"PX c #E375E3E3E4BF",
"IX c #E4E4E7E7EAEA",
"UX c #E3E3EBEBF0F0",
"YX c None",
/* pixels */
"YXYXYXYXYXYXYXYXYXYXYXYXYXYXYXYXYXYXYXYXYXYXYXYXYXYXYXYXYXYXYXYXYXYXYXYXYXYXYXYXYXYXYXYXYXYXYXYXYXYXYXYXYXYXYXYXYXYXYXYXYXYXYXYXYXYXYXYXYXYXYXYXYXYXYXYXYXYXYXYXYXYXYXYXYXYXYXYXYXYXYXYXYXYXYXYXYXYXYXYXYXYXYXYXYXYXYXYXYXYXYXYXYXYXYXYXYXYXYXYXYXYXYXYXYXYXYXYXYXYXYXYXYXYXYXYXYXYXYXYXYXYXYXYXYXYXYXYXYXYXYXYXYXYXYX",
"YXYXYXYXYXYXYXYXYXYXYXYXYXYXYXYXYXYXYXYXYXYXYXYXYXYXYXYXYXYXYXYXYXYXYXYXYXYXYXYXYXYXYXYXYXYXYXYXYXYXYXYXYXYXYXYXYXYXYXYXYXYXYXYXYXYXYXYXYXYXYXYXYXYXYXYXYXYXYXYXYXYXYXYXYXYXYXYXYXYXYXYXYXYXYXYXYXYXYXYXYXYXYXYXYXYXYXYXYXYXYXYXYXYXYXYXYXYXYXYXYXYXYXYXYXYXYXYXYXYXYXYXYXYXYXYXYXYXYXYXYXYXYXYXYXYXYXYXYXYXYXYXYXYXYX",
"YXYXYXYXYXYXYXYXYXYXYXYXYXYXYXYXYXYXYXYXYXYXYXYXYXYXYXYXYXYXYXYXYXYXYXYXYXYXYXYXYXYXYXYXYXYXYXYXYXYXYXYXYXYXYXYXYXYXYXYXYXYXYXYXYXYXYXYXYXYXYXYXYXYXYXYXYXYXYXYXYXYXYXYXYXYXYXYXYXYXYXYXYXYXYXYXYXYXYXYXYXYXYXYXYXYXYXYXYXYXYXYXYXYXYXYXYXYXYXYXYXYXYXYXYXYXYXYXYXYXYXYXYXYXYXYXYXYXYXYXYXYXYXYXYXYXYXYXYXYXYXYXYXYXYX",
"YXYXYXYXYXYXYXYXYXYXYXYXYXYXYXYXYXYXYXYXYXYXYXYXYXoXl.` ~ &.+XYXYXYXYXYXYXYXYXYXYXYXYXYXYXYXYXYXYXYXYXYXYXYXYXYXYXYXYXYXYXYXYXYXYXYXYXYXYXYXYXYXYXYXYXYXYXYXYXYXYXYXYXYXYXYXYXYXYXYXYXYXYXYXYXYXYXYXYXYXYXYXYXYXYXYXYXYXYXYXYXYXYXYXYXYXYXYXYXYXYXYXYXYXYXYXYXYXYXYXYXYXYXYXYXYXYXYXYXYXYXYXYXYXYXYXYXYXYXYXYXYXYXYXYX",
"YXYXYXYXYXYXYXYXYXYXYXYXYXYXYXYXYXYXYXYXYXYXi.` I Z 6 6 4 S OXVXZXYXYXYXYXYXYXYXYXYXYXYXYXYXYXYXYXYXYXYXYXYXYXYXYXYXYXYXYXYXYXYXYXYXYXYXYXYXYXYXYXYXYXYXYXYXYXYXYXYXYXYXYXYXYXYXYXYXYXYXYXYXYXYXYXYXYXYXYXYXYXYXYXYXYXYXYXYXYXYXYXYXYXYXYXYXYXYXYXYXYXYXYXYXYXYXYXYXYXYXYXYXYXYXYXYXYXYXYXYXYXYXYXYXYXYXYXYXYXYXYXYXYX",
"YXYXYXYXYXYXYXYXYXYXYXYXYXYXYXYXYXYXYXYXsXn.I 5 6 A A C j o.~.:XkXZXYXYXYXYXYXYXYXYXYXYXYXYXYXYXYXYXYXYXYXYXYXYXYXYXYXYXYXYXYXYXYXYXYXYXYXYXYXYXYXjXpXYXYXYXYXYXYXYXYXYXYXYXYXYXYXYXYXYXYXYXYXYXYXYXYXYXYXYXYX,X,XYXYXYXYXYXYXYXYXYXYXYXYXYXYXYXYXYXYXYXYXYXYXYXYXYXYXYXYXYXYXYXYXYXYXYXYXYXYXYXYXYXYXYXYXYXYXYXYXYXYX",
"YXYXYXYXYXYXYXYXYXYXYXYXYXYXYXYXYXYXSX|.5.Y A D L Z j g k m { ..E.lXPXYXYXYXYXYXYXYXYXYXYXYXYXYXYXYXYXYXYXYXYXYXYXYXjXqXA.g.c.YXYXYXYXYXYXYXYXYXYX|.4.6.YXYXYXYXYXYXYXYXoXc.YXYXYXYXYXYXYXYXYXYXYXYXYXYXhX_.7./ k.YXYXYXYXYXYXYXYXYXYXYXYXYXYXYXYXYXYXYXYXYXYXYXYXYXYXYXYXYXYXYXYXYXYXYXYXYXYXYXYXYXYXYXYXYXYXYXYXYXYX",
"YXYXYXYXYXYXYXYXYXYXYXYXYXYXYXYXYXHX#XU Z P U L F a t t p y e s J.kXPXYXYXYXYXYXYXYXYXYXYXYXYXYXYXYXYXYXYXYXGXnX%Xz.3.I Z 6 Z YXYXYXYXYXYXYXYXYXjX5.1 R 5XPXYXYXYXYXYXpX` C YXYXYXYXYXYXYXYXYXYXYXYXYXYX`.L 4 g o.mXJXYXYXYXYXYXYXYXYXYXYXYXYXYXYXYXYXYXYXYXYXYXYXYXYXYXYXYXYXYXYXYXYXYXYXYXYXYXYXYXYXYXYXYXYXYXYXYXYX",
"YXYXYXYXYXYXYXYXYXYXYXYXYXYXYXYXYXn.Z K I L S l < r r e y v { >.;XmXYXYXYXYXYXYXYXYXYXYXYXYXYXYXYXYXYXYX$Xv.( 5 - - - 2 4 4 d {.YXYXYXYXYXYXYXYXwXA 4 G }.3XlXYXYXYX1X5.6 2 YXYXYXYXYXYXYXYXYXYXYXYXYXYXA 8 K Z R }.-XiXZXYXYXYXYXYXYXYXYXYXYXYXYXYXYXYXYXYXYXYXYXYXYXYXYXYXYXYXYXYXYXYXYXYXYXYXYXYXYXYXYXYXYXYXYXYXYX",
"YXYXYXYXYXYXYXYXYXYXYXYXYXYXYXhX5.Y Y I R T z p r e e b { J.:XlXmXYXYXYXYXYXYXYXYXYXYXYXYXYXYXwX_.( A A 9 6 6 8 6 9 C F C d F H.(.;XBXYXYXYXYXYX X5 7 l *.-./.MXYXqX_ P A h $.}.;XBXYXYXYXYXYXYXYXYXsX5.Y U ! 8 g B  .~.lXYXYXYXYXYXYXYXYXYXYXYXYXYXYXYXYXYXYXYXYXYXYXYXYXYXYXYXYXYXYXYXYXYXYXYXYXYXYXYXYXYXYXYXYXYXYX",
"YXYXYXYXYXYXYXYXYXYXYXYXYXYXaXx.L I ^ / | { b y r p B =.~.3XxXLXYXYXYXYXYXYXYXYXYXYXYXYX,X Xz.~ 4 1 4 9 Z D L K D d 4 t , < b B { 9.cXFXYXYXYXYXf.2 z G m m k.hXsX5.P U L S H  .;.6XFXYXYXYXYXYXYXYXn.A ^ ` ! 3 : r c P.lXFXYXYXYXYXYXYXYXYXYXYXYXYXYXYXYXYXYXYXYXYXYXYXYXYXYXYXYXYXYXYXYXYXYXYXYXYXYXYXYXYXYXYXYXYXYX",
"YXYXYXYXYXYXYXYXYXYXYXYXYXyXz.P U ( &.+.E V y x N :.).:X3XxXYXYXYXYXYXYXYXYXYXYXYXz.W.g.1.D 6 6 A A I U ^ I S 3 * % % % & & e p B >.cXYXYXYXYXyX( 7 L | b m k. Xi.,.1.( ! m n b ' :XZXYXYXYXYXYXYXXXP I 5.r.H < & > n T.xXIXYXYXYXYXYXYXYXYXYXYXYXYXYXYXYXg.n.k.E.YXYXYXYXYXYXYXYXYXYXYXYXYXYXsXQ.YXg.R.YXYXYXYXYXYXYX",
"YXYXYXYXYXYXYXYXYXYXYXYXyXx.~ _ ` 6.6.} p y v X.I.6XxXYXYXYXYXYXYXYXYXYXYXYXaXn.5.K 5 6 C D I U ,.1.5.3.( 6 & % # & & q u u c H =.:XAXYXYXYXYXn.F C ) o.l o.n._ U ,.1.) W n p p { 2XLXYXYXYXYXYXoXU U 4.n.v.+.G S T &.oXzXCXYXYXYXYXYXYXYXYXYXYXYXwX&Xr.( h 4 F ^.YXYXYXYXYXYXYXYXYXYXYXrX#X'.2.A 4 3 Q >XFXYXYXYXYXYX",
"YXYXYXYXYXYXYXYXYXYXYXYXa.P ~ @.6.8.{ b p N >.:XlXPXYXYXYXYXYXYXYXYXYXYXYX Xi.P 6 8 9 Z D U 1.e.s.s.p.2.F % $ $ q u p M ] X.:.~.;XxXYXYXYXYXYX/ 5 L ( ` ` z.p._ 1.,.U W n t i N >.zXYXYXYXYX[.l.^ U w.M.A.'.v.x.r.5.&.e.k.R.YXYXYXYXYXYXYXYXYX`._.7.D 4 2 Z D $.-X3X3XVXYXYXYXYXYX&X$XC.z.I 6 5 6 C L r.5XdXxXYXYXYXYX",
"YXYXYXYXYXYXYXYXYXYXnXv.P I ` c.;.J p b ..I.dXYXYXYXYXYX,X].W.<XYXYXhXn.P K C Z D A Z 7 g D ,.p.V.a.<.Z : $ e y M  .G.!.*X3XiXYXYXYXYXYXYXYXYXL 9 ~ 4.x.B.y.2.,.( ! Q m t y [ I.6XYXYXYXeXi.~ L / y.m.m.s.y.y.a.p.` L j 5 D f.YXYXYXYXrXZ.~ Z A D j S ( 7.L.L.j.J.>.U.3XZXYXjX&X1.P L A F h L 6.k.c.L.f.h.G.(.VXYXYXYX",
"YXYXYXYXYXYXYXYXYXYX&X^ K _ c.E.{ p p [ ~.kXYXYXYXHXpXR.( j 6 ` mXGX XL 5 C K L z g 3 & % 1 / y.x.y.U 3 X # q m >.}.7XmXAXCXYXYXYXYXYXYXYXYX'.D 9 _ s.M.B.s.e.U Q / m y u b >.3XZXYXYXYX3.9 A U 3.s.s.w.3.<.,.5.z.5.U L D 6 / :XMXKX-X~ 8 2 2 9 A L i.=X{.U.*.{ B V *.<XSXpXl.L 5 5 5 K L %.E.{.Y.0. .B H W E.xXYXYXYX",
"YXYXYXYXYXYXYXYXYX'.K Z ` k.8.{ b V =.OXMXJXgX&X_.1.6 2 4 4 2 R sXR.h 2 6 j l g r > > > r l 5.` 5.1.6 o X e b U.kXZXYXYXYXYXYXYXYXYXYXYXYXsXn.A P q.M.D.d.q.( Q W n e r { I.6XFXYXYX&X<.0 P ^ ,.1.` ~ I K h 6 S ~ ` ` 2.2._ L X.~.pX6.C j K ! ` ` 0.0.E J T +.0._ | /.xXnXQ.C 4 A P ,.1.` $.*.{ E ! 7.5.! ;.3XYXYXYXYX",
"YXYXYXYXYXYXYXYXyX,.Z ^ Y.E. .s m ;.@XsXjX#X4.Z 2 h Z L D S G %.].! 3 g h l g t > e > i p | r.I ^ ~ , X $ p { ;XZXYXYXYXYXYXYXYXYXYXYXYXYXoX( A U u.V.N.2.L j B b t b { !.7XYXYXYX%XP 5 Y P I K A C 4 : * O O # > 1 t.d.u.<.7 > } OXQ.R.n.t.q.y.w.! f z ( b.F.m._ L >XJXYXoXc.Y.z.2.w.p.5.S l R 6.Z.B._ D &.cXYXYXYXYX",
"YXYXYXYXYXYXYXYXb.0 ~ k./.:.V n ;.oX$X X5.D 6 8 L I ~ ! S l m H W E | 9.;.E k i i i b { ;.Q.r.0 L D % X w v >.kXYXYXYXYXYXYXYXYXYXYXYXYXYX`.Z Y ` d.d.5.F : > i i f ..I.6XAXYXYXYX[.C 8 C g 4 3 : % $ o X X $ = y j n.a.q.P ; $ V L.uXCXfX Xw.m.V.u.` n.XX.XN.w.1.^ >XVXYXmXMXbX&Xx.m.S.N.3.5.'.|.C.3.~ S %.7XmXYXYXYX",
"YXYXYXYXYXYXYXZ.0 L 8.E.:.B m %._.i.I D h D I _ 1.,.L a r r y t b } I.(.0.J k b { *.I.OX5X,X_ 6 R h # $ y  .(.zXYXYXYXYXYXYXYXYXYXYXYXYXYX^ 9 U w.a.2.6 % $ = y v =.*X7XYXYXYXYXYX}./ 8.) a > @ @ $ $ $ $ e p k E c.i._ P g > w b I.zXFXfXn.q.d.F.F..X9X.XD.b.n.n.Y.E.).-XvXIXnXwXx.y.F.8X9X9X8XA.b.n.c.k.E.).*X6XYXYX",
"YXYXYXYXYXYX XP 9 / ^.L.[ b %. X1.6 4 Z ! ` 3.y.3.R < > & e y x ..I.;X;XE.;.=.J.~.;XlXAXMX&XK 9 D 3 $ q c G.6XYXYXYXYXYXYXYXYXYXYXYXYXYXYXZ Z <.u.y.L O $ = w M =.}.xXYXYXYXYXYXYXYXYXlXE.H r > e y y x N { *.j.Q.n.P L T z i e [ (.mXHXfX'.<.a.F.0X0XF.Z.`.@XOXE.>.X.{ j.dXKXSXqX7.3.S.9X0X9XA.`.@XOX/.K.*...-.(.YXYX",
"YXYXYXYXYXYXe.C L f.E.X.b ..OX X6 h R 4.5.y.s.w.~ : @ $ e p { >.:XlXYXxXlX3X3X7XYXYXYXYXYXx.5 9 C : & e B (.xXYXYXYXYXYXYXYXYXYXYXYXYXYX5.8 P w.d.y.L a g g J j.;XmXYXYXYXYXYXYXYXYXYXzX}.-.H B ]  .*.J.~.=X1X1X|._ L ` f.X.i f %.<XhX%XZ.u.u.V..X#Xp.~ / 0.L.%.W { ] X.E.uXpXXXx.5.M.8X8Xm.` / %.j.h.X.[ B { 0.:XYXYX",
"YXYXYXYXYXn.I S T j.*.N B I.cXuXY.Y.W.k.b.B.y._ 6 X $ e p X.).6XYXYXYXYXYXYXYXYXYXYXYXYXYX4.5 A 7 ; > u X.3XYXYXYXYXYXYXYXYXYXYXYXYXYXtX` A ,.s.y.q.` ^ ` t.c.@XsXnXnXYXYXYXYXYXYXYXYXYXzX:X(./.(.;X5XxXAXMXgXb._ K / E.~...f E /.hXR.K P 3.d.D.D./ p < p b J o.$.$.I.-X1XoX2._ 3.N.8XqXv.l r t b G Q ;.;.0./.3XmXYXYX",
"YXYXYXYXl.I Z S / f.N M =.:XYXYXHXbX}.c.A.a.2.L : X = t ..).xXYXYXYXYXYXYXYXYXYXYXYXYXYXYX( Z L < , > t >.lXYXYXYXYXYXYXYXYXYXYXYXYXYX[.Z P 2.w.<.U I I ! R L L ! ` &.5. XYXYXYXYXYXYXYXYXAXBXAXZXZXYXUXYXgXi.K I K 0.{.>.N V >.pXpXL 9 U y.V.D.2.t = = 7 Q c.`.z.}.lXZXsX2.K ,.M.F.0X'.Q > & r k %.|.n./.6XxXmXYXYXYX",
"YXYXYX].~ 6 C F j.B x X.;XZXYXYXYXjXwXD.y.3.I C : $ i ..(.YXYXYXYXYXYXYXYXYXYXYXYXYXYXYXx.F K h : > i { (.YXYXYXYXYXYXYXYXYXYXYXYXYX#XA S ` ` D 4 , 3 1 6 Z Z 6 6 7 4 - 2 : YXYXYXYXYXYXYXYXYXYXYXYXYX#X^ 8 A U +.{.W. .b m J.6XYXfXW F U y.C.5.l l R v.|.p.U K D -XYXYXYXf.U <.N.XX|.9 4 D 4.'.A.3.Y 6 k.AXPXYXYXYXYX",
"YXYXYX,XL A j S } s V J.zXYXYXYXYX|.p.w.u.q.I 6 = > p :.5XYXYXYXYXYXYXYXYXYXYXYXYXYXYXYX` 9 L g ; w p *.2XYXYXYXYXYXYXYXYXYXYXYXYXYX3.6 L ` / a # o O * ; : 3 7 g h 6 6 3 3 ;.iXAXYXYXYXYXYXYXYXYX%Xv.I 6 A I / 6.T.X.b N =.;XVXYXYX{.@.L 3.m.w.` l.n.e._ I K I 6.6XzXxXAX5XR.4.3.B.C.P 5.n.v.5.U L D ! {.xXxXvXYXYXYX",
"YXYXYX`.Z K Z l k s  .=XMXpX_.x.e.3.y.d.d.3.L < O e k I.zXYXYXYXYXYXYXYXYXYXYXYXYXYXYX X9 C Z < $ w V J.dXYXYXYXYXYXYXYXYXYXYXYXYXhXZ 6 I L l < > e > $ ; ; & & $ % % % % % V J.*XBXYXYXYXYXYXv.z.~ 6 9 L R Q o.O.] b N :.=XvXYXYXYXYX'.A ,.y.m.p.r.( K K P 0.0.~.~.K.).7XYXpX7.^ e.v.s.p.( L A D o.$.L.~.I.~.6XVXYXYX",
"YXYXYX5.6 L ! z D o.Y.$XoXi.K K ^ y.V.V.s.<.A # @ e B *XmXYXYXYXYXYXYXYXYXYXYXYXYXYXYX1.5 Z j > > e { *XxXYXYXYXYXYXYXYXYXYXYXYXYXqX6 A L 3 ; > t [ X.X.E B b p e > $ # @ @ e b *.5XPXYXtXXX` 0 8 A L I D G E B M p b :.;XzXYXYXYXYXYXx.0 U y.y.` L 6 z / 0.f.0...' { K.iXHXsX4.I 2.s.5.P C l ! ;.k.G.*.{ B *.;XAXYXYX",
"YXYXYX` 6 ! _ ` 4.7.7.` A 6 6 D ~ 2.d.M.y.,.6 + = y X.2XZXYXYXYXYXYXYXYXYXYXYXYXYXYXYXK 5 D 3 % > i *.3XAXYXYXYXYXYXYXYXYXYXYXYXYXv.6 D S : # e N I.;X-X(.~.I.>.=. .[ N b x b N o.,XhX&X7.L 8 Z P P ! S h k b t t N >.2XxXYXYXYXYXYX X^ P 3.y.( C 3 t | 0.#.{ J N B :.*XbXsXv.P <.5.2.Z 1 3 G #.>.X.B B B X.!.kXYXYXYX",
"YXYXYX4.9 I 2.q.3.( L Z 6 h F R R ! 2.w.3.P : + $ x >.3XYXYXYXYXYXYXYXYXYXYXYXYXYXYXW.9 5 F < $ e v I.kXYXYXYXYXYXYXYXYXYXYXYXYXgX/ 6 I j % @ u ..;XYXYXYXYXcXlX6X;X}.~.I.P.J.j.].[.4.L 0 A P ~ L F a , r r y p ' J.3XVXYXYXYXYXnX$X1.U <.3.~ 3 # # i b k b b J :.~.6XMXsXr.P ,.5.4.C % $ r b V V b B X.P.:X6XYXYXYXYX",
"YXYXYX6.C L _ <.,.P D j j G o.o.G T 6.<.( D O X e N I.7XYXYXYXYXYXYXYXYXYXYXYXYXYXYX XC 8 l t w e V *XxXYXYXYXYXYXYXYXYXYXYXYXYXwXC h G d @ # p *.6XYXYXYXYXYXYXYXYXZXxXxXcXkXfX,X~ 8 A I ~ L D h & # & q q p ..U.7XZXYXYXYXYXYX`.U A _ 2.( g & = = = p N ..0.~.3XxXYXSXC.A P <.` R , % $ e y b [ *.I.:XkXVXYXYXYXYXYX",
"YXYXYX! C j D D S 6 , , s V m V t S 6.U I 7 o $ e ..*XlXYXYXYXYXYXYXYXYXYXYXYXYXYXYX`.F h l c w t  .3XZXYXYXYXYXYXYXYXYXYXYXYXYX#X6 h g * @ & c :.lXYXYXYXYXYXYXYXYXYXYXYXYXYXnXn.6 Z L D S a % % % $ q u M =.(.7XYXYXYXYXYXYXuX@.2 6 L L j : & e p J =.I.:XlXYXYXYXYX1XD 4 Z P D t & & y b ..J.(.5XdXYXYXYXYXYXYXYXYX",
"YXYXYXYXj.G & # X . + $ w y y x W >.k.S j < # = p 0.7XxXYXYXYXYXYXYXYXYXYXYXYXYXYXYX'.Z S W b i J ~.cXYXYXYXYXYXYXYXYXYXYXYXYXYXqXA L Q s e w B I.xXYXYXYXYXYXYXYXYXYXYXYXYXYXyX@.4 4 < & # @ $ & q r V X.!.7XZXYXYXYXYXYXYXYXuX%.4 S 3 , ; % & b =.).zXAXFXYXYXYXYXYX@XS G l 1 % o $ y { I.3XBXPXYXYXYXYXYXYXYXYXYXYX",
"YXYXYXYXzX<X .& X @ = e y M { =.).<XoX/ g a r e B ~.xXYXYXYXYXYXYXYXYXYXYXYXYXYXYXYXYXY./.>.b x :.2XxXYXYXYXYXYXYXYXYXYXYXYXYXYXYX7.3XE.H u c :.;XYXYXYXYXYXYXYXYXYXYXYXYXYXYXYX7.g.%.H t & & e u c { G.*X7XZXYXYXYXYXYXYXYXYXYXYXYX>XE : & e e { ).kXZXYXYXYXYXYXYXYXYXYX7XI.V @ # e b 0.6XVXYXYXYXYXYXYXYXYXYXYXYXYX",
"YXYXYXYXYXVX(.X.V b V { =.P.:XkXxXmXYXk.:.=.b e ..3XZXYXYXYXYXYXYXYXYXYXYXYXYXYXYXYXYXYXxXI.B ..*XBXYXYXYXYXYXYXYXYXYXYXYXYXYXYXYXYXVX}. .B =.:XVXYXYXYXYXYXYXYXYXYXYXYXYXYXYXYXYXFX6X$.c p c m  .H.*X7XxXYXYXYXYXYXYXYXYXYXYXYXYXYXlX:.B p p N P.zXYXYXYXYXYXYXYXYXYXYXYXBXOX*.M x p #.}.YXYXYXYXYXYXYXYXYXYXYXYXYXYX",
"YXYXYXYXYXYXiX}.L.J.J.~.;XlXxXZXYXYXYXYXdX~.B b >.zXYXYXYXYXYXYXYXYXYXYXYXYXYXYXYXYXYXYXBX}.>.E.zXYXYXYXYXYXYXYXYXYXYXYXYXYXYXYXYXYXVX3XU.U.:XcXPXYXYXYXYXYXYXYXYXYXYXYXYXYXYXYXYXLX7X!.X.X.=.J.}.7XBXYXYXYXYXYXYXYXYXYXYXYXYXYXYXYXvX(.P.>.*.;.:XAXYXYXYXYXYXYXYXYXYXYXYXVX3X~.J.=.*.~.3XYXYXYXYXYXYXYXYXYXYXYXYXYXYX",
"YXYXYXYXYXYXYXYXYXlXlXYXYXYXYXYXYXYXYXYXVX3XJ.=.*XYXYXYXYXYXYXYXYXYXYXYXYXYXYXYXYXYXYXYXYXxX6XcXAXYXYXYXYXYXYXYXYXYXYXYXYXYXYXYXYXYXYXxXkX7XYXYXYXYXYXYXYXYXYXYXYXYXYXYXYXYXYXYXYXYXxXiX;X3X6X3XYXYXYXYXYXYXYXYXYXYXYXYXYXYXYXYXYXYXYX7XzXkX6X5XdXYXYXYXYXYXYXYXYXYXYXYXYXYXYXYX7X6X3XlXYXYXYXYXYXYXYXYXYXYXYXYXYXYXYX",
"YXYXYXYXYXYXYXYXYXYXYXYXYXYXYXYXYXYXYXYXYXxX;X:XzXYXYXYXYXYXYXYXYXYXYXYXYXYXYXYXYXYXYXYXYXYXYXYXYXYXYXYXYXYXYXYXYXYXYXYXYXYXYXYXYXYXYXYXYXYXYXYXYXYXYXYXYXYXYXYXYXYXYXYXYXYXYXYXYXYXYXYXYXYXYXYXYXYXYXYXYXYXYXYXYXYXYXYXYXYXYXYXYXYXYXYXYXYXYXYXYXYXYXYXYXYXYXYXYXYXYXYXYXYXYXYXYXYXYXYXYXYXYXYXYXYXYXYXYXYXYXYXYXYXYX",
"YXYXYXYXYXYXYXYXYXYXYXYXYXYXYXYXYXYXYXYXYXYXYXYXYXYXYXYXYXYXYXYXYXYXYXYXYXYXYXYXYXYXYXYXYXYXYXYXYXYXYXYXYXYXYXYXYXYXYXYXYXYXYXYXYXYXYXYXYXYXYXYXYXYXYXYXYXYXYXYXYXYXYXYXYXYXYXYXYXYXYXYXYXYXYXYXYXYXYXYXYXYXYXYXYXYXYXYXYXYXYXYXYXYXYXYXYXYXYXYXYXYXYXYXYXYXYXYXYXYXYXYXYXYXYXYXYXYXYXYXYXYXYXYXYXYXYXYXYXYXYXYXYXYXYX",
"YXYXYXYXYXYXYXYXYXYXYXYXYXYXYXYXYXYXYXYXYXYXYXYXYXYXYXYXYXYXYXYXYXYXYXYXYXYXYXYXYXYXYXYXYXYXYXYXYXYXYXYXYXYXYXYXYXYXYXYXYXYXYXYXYXYXYXYXYXYXYXYXYXYXYXYXYXYXYXYXYXYXYXYXYXYXYXYXYXYXYXYXYXYXYXYXYXYXYXYXYXYXYXYXYXYXYXYXYXYXYXYXYXYXYXYXYXYXYXYXYXYXYXYXYXYXYXYXYXYXYXYXYXYXYXYXYXYXYXYXYXYXYXYXYXYXYXYXYXYXYXYXYXYXYX"
};
