/* XPM */
static char * refresh_xpm[] = {
"16 16 4 1",
" 	c None",
".	c #007F00",
"+	c #000000",
"@	c #00FF00",
"                ",
"        .....+  ",
"        .@@@@+  ",
"   ..   .@@@+   ",
"  .@@+  .@@@@+  ",
"  .@@+  .@+@@+  ",
" .@@+   ++ .@@+ ",
" .@@+      .@@+ ",
" .@@+      .@@+ ",
" .@@+      .@@+ ",
"  .@@.    .@@+  ",
"  .@@@....@@@+  ",
"   +@@@@@@@@+   ",
"    ++@@@@++    ",
"      ++++      ",
"                "};
