/* XPM */
static char * right_left_xpm[] = {
"16 16 2 1",
" 	c None",
".	c orange4",
"                ",
"                ",
"   .            ",
"  ..            ",
" .............. ",
" .............. ",
"  ..            ",
"   .            ",
"            .   ",
"            ..  ",
" .............. ",
" .............. ",
"            ..  ",
"            .   ",
"                ",
"                "};
