/* XPM */
static char * rotate_left_xpm[] = {
"16 16 4 1",
" 	c None",
".	c #000000",
"+	c #F9C2ED",
"@	c #B794B0",
"                ",
"      ....      ",
" .. ..++++..    ",
" @+.++++++++.   ",
" @++++@@@@+++.  ",
" @+++.    @++.  ",
" @++++.    @++. ",
" @@@@@.    @++. ",
"           @++. ",
"           @++. ",
"    ..    @++.  ",
"   @++....+++.  ",
"   @++++++++.   ",
"    @@++++@@    ",
"      @@@@      ",
"                "};
