/* XPM */
static char * small_icons_xpm[] = {
"16 16 4 1",
" 	c None",
".	c #00007F",
"+	c #FFFFFF",
"@	c #000000",
"                ",
"                ",
" ..      ..     ",
" .+. @@@ .+. @@@",
" ...     ...    ",
"                ",
"                ",
" ..      ..     ",
" .+. @@@ .+. @@@",
" ...     ...    ",
"                ",
"                ",
" ..      ..     ",
" .+. @@@ .+. @@@",
" ...     ...    ",
"                "};
