/* XPM */
static char * thumbnails_xpm[] = {
"16 16 8 1",
" 	c None",
".	c #000000",
"+	c #00FFFF",
"@	c #FFFFFF",
"#	c #FF0000",
"$	c #D0D7D0",
"%	c #00FF00",
"&	c #007F00",
"                ",
"                ",
" ....           ",
".++++.          ",
".++++.          ",
".@@@@.          ",
".####.     .... ",
".@##@.    .$$$@.",
" ....     .@@++.",
"          .@%%+.",
"......    .&%%@.",
"          .&&@@.",
"           .... ",
"                ",
"          ......",
"                "};
