/* XPM */
static char * timestamp_xpm[] = {
"16 16 11 1",
" 	c None",
".	c #000000",
"+	c #808000",
"@	c #555500",
"#	c #808080",
"$	c #808040",
"%	c #BFBF00",
"&	c #BFBFBF",
"*	c #FFFFFF",
"=	c #A0A0A0",
"-	c #404040",
"                ",
"                ",
"     .+++@      ",
"    ++###$+@    ",
"   %$&*#*&&%@   ",
"  @$***&**#=+   ",
"  +&&****-#&$@  ",
" .+*****-#**#+  ",
" .+&#**##*&##+  ",
" .+*********#+  ",
"  +#&******&+.  ",
"  .%&&*#*&*$+   ",
"   @%#*&*&$%    ",
"    .+++++@     ",
"      ...       ",
"                "};
