/* XPM */
static char * up_down_xpm[] = {
"16 16 2 1",
" 	c None",
".	c orange4",
"                ",
"    ..    ..    ",
"   ....   ..    ",
"  ......  ..    ",
"    ..    ..    ",
"    ..    ..    ",
"    ..    ..    ",
"    ..    ..    ",
"    ..    ..    ",
"    ..    ..    ",
"    ..    ..    ",
"    ..    ..    ",
"    ..  ......  ",
"    ..   ....   ",
"    ..    ..    ",
"                "};
