/* XPM */
static char * about_xpm[] = {
"16 16 6 1",
" 	c None",
".	c #FFFFFF",
"+	c #7F7F7F",
"@	c #000000",
"#	c #00FF00",
"$	c #007F00",
"                ",
"                ",
"                ",
"   . . . .      ",
"  .++++ . . .   ",
" .++++++++ . .  ",
". ++@@@++++ . . ",
" .@@@@@@@@+. . .",
". @@#@@@#@@+. . ",
" .@$#$@@#@@@+. .",
". .@@###...++ . ",
" . . @@@@@@++. .",
"  . . . . . . . ",
"     . . . . .  ",
"                ",
"                "};
