/* XPM */
static char * file_sun_xpm[] = {
"16 16 5 1",
" 	c None",
".	c #000000",
"+	c #FFF8FF",
"@	c #C681F4",
"#	c #FFFFFF",
"   ...........  ",
"   .+++++++++.  ",
"   .+++++++++...",
"   .+++++++++++.",
"................",
".@@@@@@@@@@@@@@.",
".@@##@@#@#@#@@#.",
".@#@@#@#@#@##@#.",
".@@##@@#@#@#@##.",
".@#@@#@#@#@#@@#.",
".@@##@@###@#@@#.",
".@@@@@@@@@@@@@@.",
"................",
"   .+++++++++++.",
"   .+++++++++++.",
"   ............."};
