/* XPM */
static char * file_tga_xpm[] = {
"16 16 5 1",
" 	c None",
".	c #000000",
"+	c #FFF8FF",
"@	c #919E9B",
"#	c #FFFFFF",
"   ...........  ",
"   .+++++++++.  ",
"   .+++++++++...",
"   .+++++++++++.",
"................",
".@@@@@@@@@@@@@@.",
".@++#@@##@@@#@@.",
".@@#@@#@@@@#@#@.",
".@@+@@#@+@@#@#@.",
".@@#@@+@@+@###@.",
".@@#@@@##@@#@#@.",
".@@@@@@@@@@@@@@.",
"................",
"   .+++++++++++.",
"   .+++++++++++.",
"   ............."};
