/* XPM */
static char * folder_collapsed_xpm[] = {
"16 12 4 1",
" 	c None",
".	c #000000",
"+	c #FFF800",
"@	c #FFF8FF",
"  .....         ",
" .+@+@+.        ",
"..@+@+@.......  ",
".@.....@+@+@+@. ",
".+@+@+@+@+@+@+. ",
".@+@+@+@+@+@+@. ",
".+@+@+@+@+@+@+. ",
".@+@+@+@+@+@+@. ",
".+@+@+@+@+@+@+. ",
".@+@+@+@+@+@+@. ",
".+@+@+@+@+@+@+. ",
"............... "};
