/* XPM */
static char * hotaru_xpm[] = {
"58 48 44 1",
" 	c None",
".	c #9999CC",
"+	c #999999",
"@	c #666699",
"#	c #666666",
"$	c #333333",
"%	c #336633",
"&	c #003300",
"*	c #330033",
"=	c #330000",
"-	c #000000",
";	c #000033",
">	c #003333",
",	c #333300",
"'	c #666633",
")	c #663333",
"!	c #333366",
"~	c #663366",
"{	c #336666",
"]	c #669966",
"^	c #663300",
"/	c #999966",
"(	c #996666",
"_	c #996633",
":	c #666600",
"<	c #CC99CC",
"[	c #996699",
"}	c #CC9999",
"|	c #FFCC99",
"1	c #FF9999",
"2	c #CCCCCC",
"3	c #FFCCCC",
"4	c #669999",
"5	c #CCCC99",
"6	c #CC9966",
"7	c #CC6666",
"8	c #999933",
"9	c #99CCCC",
"0	c #FFFFCC",
"a	c #FFCCFF",
"b	c #CC9933",
"c	c #99CC99",
"d	c #660033",
"e	c #CCCCFF",
"                             .                            ",
"                            ...                           ",
"                           .....                          ",
"                           ...+.                          ",
"                          .@#$$$...                       ",
"                         .%$&$*$=&$-                      ",
"                        $-**$$$$$$=$;                     ",
"                      $**$$&$=>**$;;,$-;                  ",
"                    '$)!)!$$*$*$$>,*>;*$-                 ",
"                   )~{~#{~~~{$$!*$;,*&$$,-                ",
"                  $$$)%!~#%#~#~#)$$*$$=$$$*               ",
"                 =*$$!#)#$~$#$%$$$)$$*$$-$-               ",
"                $;$$$'${$#$$$$$$$!#~$!$$**$$              ",
"                ;,$$$$$$$$$$$$$*$$$$''~%!)!)]             ",
"              .>$>*>$$$$*$&-=>,$$$$$>$$~$#'!#             ",
"            ..$$=$$,*&$-;,**$$*$$$*,*$$$$$!#$.            ",
"       ...+@.#$$$$$;$$*$$$$$)$$$$*$$$-$-$*$$$+...         ",
" .....+++.+.+#)$$,$$-$$*^$*#$,$)$$,*$$*$>-*$$#.++.....    ",
".+.+++..+..+.+#$*$;$$)$$'$)')$'))$$$*,>-*$;$$#+......+....",
" ..+..+.....+.+#,$=$$')/()#(_$):$)$*&$**$&$$&~.....+......",
"  ..+..+<+<+.<.[$$>=$('+()//)))#))$$$*&$$*$-*%.+}.+.<.+.. ",
"   ..++.+.+.+.+[$$>$$/#(/#('/+'}#($)$$*-$-$$-$...+.....   ",
"    ..<......<#$&$=;')#(//|1/}(((/~)$;,;,$-$*$++..<.+.    ",
"     ..++.}+./$=$*>*$/++#}2|}}/_(/(#',*$*;*&;$[......     ",
"      ...+..+';$*,$=>}})$}333|+++$#($$$&*>&**,4.}+..      ",
"       .....[$$-$;$$=+5##}35333/#$#'$$$*,*;>;$#.+..       ",
"         .++',;$$$=$>/}+}533232(~#()=$,$$;$*;=@+..        ",
"          ..$*$*$*>$=+|3|}|3|33+(+6$$$$;;,*&$$#..         ",
"           .$$,$&$$*>/332}53232|51'$$$-*,$;$$-@.          ",
"            .$*$*$$,*$3336/}|333|/')*$$&;$$$*!.           ",
"             +$~~~!$$*]33}762323}8$$$,$$&*,$$+            ",
"             +#.+++[#'*/53|533|3/_$$$$$;*$>*;9            ",
"             ##+..+...[$#333302}8)$*$$;,$;*,>.            ",
"             #@.++.+[+.+[+52}}66/)$$*$$$=$>*=4            ",
"             #....+#(#@@+@+#}556_$$$$*$$$*$!$+            ",
"             +.++[+@/@@#@@~{(+(~!$$*$~@@[(#+++            ",
"             + 32}5(/@@@@##(/8~{#$))@@[/(+23a             ",
"            .+<a2}2+[#@[@#}}(b##~#@@@(++.a2252            ",
"            .+++}<5/+[@@{(|35}/(@@@@][#} 25335            ",
"            <.'$)+2+##@@#}5}}/[@@#@#(+ca2}2332            ",
"            .+~$)$#+#[###2320 2@@#(#+2}2533|35a           ",
"           .+.#,%)$##+@!@       @2$+22922332332           ",
"           .[+#*)$'d${[           229+2}3333532           ",
"           ...()$)$~4               22232335355           ",
"           .+++$)#                     335|335+           ",
"           .@'_#+                        332333           ",
"           .)@                              32+e          ",
"           .2                               3             "};
