/* XPM */
static char * next_image_xpm[] = {
"16 16 5 1",
" 	c None",
".	c #000000",
"+	c #FFFFFF",
"@	c #7F7F7F",
"#	c #00007F",
"                ",
"                ",
"                ",
"  ...........   ",
"  .+++++++++.@  ",
"  .++++##+++.@@ ",
"  .+++++##++.@@ ",
"  .+#######+.@@ ",
"  .+++++##++.@@ ",
"  .++++##+++.@@ ",
"  .+++++++++.@@ ",
"  ...........@@ ",
"   @@@@@@@@@@@@ ",
"    @@@@@@@@@@@ ",
"                ",
"                "};
