/* XPM */
static char * gtksee_xpm[] = {
"32 32 186 2",
"  	c None",
". 	c #DFD8DF",
"+ 	c #EFEFEF",
"@ 	c #D0D7D0",
"# 	c #808780",
"$ 	c #909790",
"% 	c #9F9FA0",
"& 	c #AFB0AF",
"* 	c #C0C8C0",
"= 	c #CFC8CF",
"- 	c #707770",
"; 	c #E0E8E0",
"> 	c #606760",
", 	c #4FA16C",
"' 	c #28DD68",
") 	c #29DD66",
"! 	c #35D168",
"~ 	c #35D266",
"{ 	c #57C176",
"] 	c #57C174",
"^ 	c #4FB968",
"/ 	c #31CD56",
"( 	c #31CD54",
"_ 	c #31CD52",
": 	c #37D355",
"< 	c #37D353",
"[ 	c #37D350",
"} 	c #38D34E",
"| 	c #70BD7B",
"1 	c #42DC55",
"2 	c #4EEA5E",
"3 	c #4EEA5C",
"4 	c #53EA5F",
"5 	c #A6D3A9",
"6 	c #54EF5B",
"7 	c #54EF58",
"8 	c #54F056",
"9 	c #7EE77E",
"0 	c #34D170",
"a 	c #0FF766",
"b 	c #3AD772",
"c 	c #40DA6F",
"d 	c #45E071",
"e 	c #40DB68",
"f 	c #80B28D",
"g 	c #36D358",
"h 	c #13FA41",
"i 	c #51A25F",
"j 	c #50B95F",
"k 	c #38D44D",
"l 	c #749377",
"m 	c #14FB2E",
"n 	c #15FB2B",
"o 	c #6AD173",
"p 	c #7DE782",
"q 	c #16FC1E",
"r 	c #91D993",
"s 	c #669F7B",
"t 	c #0FF66A",
"u 	c #0FF667",
"v 	c #9DB7A5",
"w 	c #45E072",
"x 	c #57D779",
"y 	c #46E068",
"z 	c #13FA42",
"A 	c #5BAD6A",
"B 	c #74AC7C",
"C 	c #59C367",
"D 	c #14FB2F",
"E 	c #15FB2C",
"F 	c #5CAE63",
"G 	c #67B86C",
"H 	c #25F131",
"I 	c #8DC08F",
"J 	c #34D174",
"K 	c #0FF66B",
"L 	c #3AD675",
"M 	c #4CE86E",
"N 	c #12F943",
"O 	c #86D895",
"P 	c #14FB30",
"Q 	c #15FB2D",
"R 	c #38D446",
"S 	c #15FC27",
"T 	c #38D542",
"U 	c #0EF66C",
"V 	c #3AD676",
"W 	c #8CBF9D",
"X 	c #6FBC89",
"Y 	c #7AC892",
"Z 	c #7AC891",
"` 	c #99D2A8",
" .	c #46E069",
"..	c #12F944",
"+.	c #7BC88A",
"@.	c #14FB31",
"#.	c #21ED34",
"$.	c #15FC28",
"%.	c #15FC25",
"&.	c #5CAE60",
"*.	c #40C477",
"=.	c #0EF66D",
"-.	c #2BE072",
";.	c #73AC85",
">.	c #3FD974",
",.	c #10F75B",
"'.	c #20ED60",
").	c #8CBF9B",
"!.	c #46E06A",
"~.	c #12F945",
"{.	c #14FB32",
"].	c #5CAD64",
"^.	c #44C74F",
"/.	c #15FC26",
"(.	c #16FC23",
"_.	c #668567",
":.	c #81A18C",
"<.	c #0EF66E",
"[.	c #81A18B",
"}.	c #65B77F",
"|.	c #10F75C",
"1.	c #45E075",
"2.	c #46E06B",
"3.	c #12F946",
"4.	c #7AC88B",
"5.	c #14FB33",
"6.	c #67B86F",
"7.	c #2CE13A",
"8.	c #15FC24",
"9.	c #22EE2B",
"0.	c #5AAC7A",
"a.	c #1CEB70",
"b.	c #1BE96B",
"c.	c #56C17D",
"d.	c #65B781",
"e.	c #3AD770",
"f.	c #10F75D",
"g.	c #45DD6B",
"h.	c #60C67B",
"i.	c #23F055",
"j.	c #12F947",
"k.	c #22EE4E",
"l.	c #8CC096",
"m.	c #59D86C",
"n.	c #14FB34",
"o.	c #33E647",
"p.	c #82A184",
"q.	c #16FC22",
"r.	c #2ADE30",
"s.	c #5CAE5E",
"t.	c #73937D",
"u.	c #5AAC78",
"v.	c #34D16F",
"w.	c #41C470",
"x.	c #65B780",
"y.	c #AFA78F",
"z.	c #6FBC84",
"A.	c #70BD83",
"B.	c #70BD82",
"C.	c #70BD81",
"D.	c #8CC097",
"E.	c #7BC887",
"F.	c #7BC986",
"G.	c #7BC985",
"H.	c #7BC984",
"I.	c #9EB8A0",
"J.	c #71BE78",
"K.	c #5CAE62",
"L.	c #5CAE61",
"M.	c #68A06A",
"N.	c #505050",
"O.	c #60972F",
"P.	c #2F9700",
"Q.	c #2F6700",
"R.	c #2F972F",
"S.	c #606700",
"T.	c #2FC82F",
"U.	c #CFFF90",
"V.	c #90972F",
"W.	c #60C860",
"X.	c #60C82F",
"Y.	c #609760",
"Z.	c #90C890",
"`.	c #FFFFFF",
" +	c #E0E7D0",
".+	c #90C860",
". + + + + + + + + + + + + + + + + + + + + + + + + + + + + + + @ ",
"+ # # # # # # $ # $ $ # $ $ % & & * = * * @ = @ @ @ @ @ @ @ @ # ",
"+ # # # - - # - - # - - # # $ $ $ % & * = = @ @ @ @ @ . @ @ @ # ",
"; # - > - - - - - - - - - # - - # # $ % * * * = @ @ @ @ @ . @ # ",
"+ - - - , ' ) ! ~ { ] # ^ / ( _ : < [ } | 1 2 3 4 5 6 7 8 9 @ # ",
"+ - # 0 a b $ $ % c d % e f $ g h i $ j k l m n o * p q r @ @ # ",
"+ # s t u $ % % & v w * x * * y z A # B C # D E F G H I * = = # ",
"+ # J K L $ % % & & & & * * * M N O & $ # # P Q R S T # $ & & # ",
"+ # J U V $ % W X Y Z ` & * *  ...+.* % % $ @.m #.$.%.&.# # $ # ",
"; $ *.=.-.$ % ;.>.,.'.).& & & !.~.+.& & & % {.D ].^./.(._.# # # ",
"+ # :.<.K [.$ $ }.|.1.% & & & 2.3.4.& & & & 5.P 6.# 7.8.9.# # # ",
"+ # # 0.a.b.c.d.e.f.g.% % & h.i.j.k.l.& & m.n.@.o.p.^.%.q.r.s.# ",
"+ # # # t.u.v.w.x.}.$ % % y.z.A.B.C.D.% & E.F.G.H.I.J.K.L.&.M.# ",
"; # # # # # # # # $ # $ $ % % % % & y.% & % & % & & & % $ $ $ # ",
"+ - - - - # - # # - # # # # # # $ $ $ % % & % y.& % & & & % $ # ",
"+ - - - - # - - - - # # # # # $ $ $ # $ $ $ % % % % & & & & & # ",
"+ - - - > - > > > > > > - - # # # # # $ $ $ # $ % % % & % & & # ",
"+ > > N.> N.N.N.N.N.N.N.N.> N.N.- - - # # $ $ # # $ $ $ & % & # ",
"+ > > N.N.N.N.N.N.N.N.> N.N.N.N.N.N.> > - - # $ # $ $ % % % % # ",
"+ # > N.N.N.N.N.> # * O.P.Q.O.R.Q.O.S.R.N.N.> # # $ # $ y.$ & # ",
"+ $ # > N.N.- % * . * T.O.R.U.Q.y.$ U.V.O.> N.> # $ $ # % % % # ",
"; % # - > N.- % @ ; . W.X.O.U.Q.Q.Q.U.Y.X.& & > - # $ $ $ $ $ # ",
"+ % $ # - > N.# = . + Z.T.O.O.Q.Z.$ R.X.X.; `.* - - # $ # % % # ",
"; & % $ # # > > # & + + W.O.X.R.O.R.X.X.Z.`.`.`.* - # # $ $ $ # ",
"+ % & $ $ # # # - - %  ++ X.X.O.X.O.X.Z.`.`.`.`.+ $ - - # $ % # ",
"; & & & % % % $ $ # # # % . U..+.+.++ `.`.`.`.`.+ = $ - # $ % # ",
"+ & & & & & & % & $ $ # $ # # & * @ ; ; ; @ @ = * = $ # # % & # ",
"+ & * & & & & & & & & & & % % $ % # $ # $ # # # # # # # # $ & # ",
"+ & * * * * & * * * * * & * * & & & % & % $ $ $ $ # % $ & & * # ",
"+ & * * * * * * * * = * = = = * = = * * * * * * & & & & * * * # ",
"+ * * * * * * * * = = = = = = = = * = * = = * * * & * * = * * # ",
"= # # # # # # # # # # # # # # # # # # # # # # # # # # # # # # - "};
