/* XPM */
static char * gtksee_xpm[] = {
"32 32 42 1",
" 	c None",
".	c #303030",
"+	c #585858",
"@	c #808080",
"#	c #A0A0A0",
"$	c #C3C3C3",
"%	c #DCDCDC",
"&	c #000000",
"*	c #400000",
"=	c #C00000",
"-	c #C00000",
";	c #FFC0C0",
">	c #C05800",
",	c #FF8000",
"'	c #FFA858",
")	c #FFDCA8",
"!	c #404000",
"~	c #808000",
"{	c #C0C000",
"]	c #FFFF00",
"^	c #FFFFC0",
"/	c #004000",
"(	c #008000",
"_	c #00C000",
":	c #00FF00",
"<	c #C0FFC0",
"[	c #004040",
"}	c #008080",
"|	c #00C0C0",
"1	c #00FFFF",
"2	c #C0FFFF",
"3	c #000000",
"4	c #000080",
"5	c #0000C0",
"6	c #0000FF",
"7	c #C0C0FF",
"8	c #000000",
"9	c #800080",
"0	c #C000C0",
"a	c #FF00FF",
"b	c #FFC0FF",
"c	c #FFFFFF",
"''$'$;;;;;$;';''''#'#'#'#,#,#,@,",
"$';';;)$;;$;$'$'$''#'#,#'#,#,@,@",
"''$'##>@##';$';'$'#'#'#,#'#,#,@,",
"'#,~>@>~>@~';$''#''#'#'#,#,#,#,@",
"'#,@>@>@>@+>##'$'#''#'#'#'@,@,@,",
"'#';'''#>@>+>~#$;'#''#,#,#'#,#,#",
"''#''$;;;'#>++>@#'#'#'#'#,#,#@,@",
"'#'#'''';;;'@>!+>@#'#'#'#,##,#,@",
"''#,##'$';'''>+!!+~@,#,#'#,#@,#,",
";'#,@,#'#''''',>>.!!++>@#'#,#@,#",
";''#,@,#,#'#'#,@>>!9!!!+>@#'#,#>",
"$;',#>@,@,@,@'@,#,@>>!!.!!@>##'#",
";$;#,+>+>@+>!+!>+>@>@>>+!!>+>#,#",
";';'$>!!!!!.!+.+!!!>+>>>>>+>>@,#",
";$;$;'@9!*+!.!....*..!!>@>@>+@,#",
";;';;;;#>!>@,#,+>!......!>@,#,#'",
";$;$;;'@#>+#;;#>@.!!!+!!.!>@#,#'",
";;;;$;;#>#>@';;#)>.!+!!>>..>@,#'",
";$;;'$;'@#>+;;;@$@++++!>@>!!>@#'",
"'$'$;;;$,#'>@#;#+++>++>@@>+!!+>#",
";'$''$;;#'@'@@';'~!!>@@>++...!>>",
"'$'$'$';''#''@@@#'#,@,+>!..!!!+>",
";''$''$'$''#;,@>+++!+!..!.!>>>>@",
"'$''''''$';'#'##>+>!+!!!+!+!++>,",
"'$'#''#''#'%';',@>@>>>>>+>>>>>>#",
";''''''#''#';;$'#,@@@>@>>>>@>@>,",
"'$'$'#,,#,#'#'#''#',#,@,@>@,>@,@",
";'''''#,@,@,#'#'#'#,@,@,@,>@,@,#",
"'$'#'#,,#,#,@,,#,#,#,@,>,@,@,@,#",
"'$;''#'#,,#,#>@,@,@,@,@@,>@>,@,#",
";'$'''''#,#,@,>@>,@,>@,>@,@,@,#,",
"'$'$'#''#,@,#,@,@>@,>@,@>,@>,#,#"};
