/* XPM */
static char* gtksee_xpm[]={
"16 16 10 1",
"g c #e8cebd",
"a c #ffa858",
"d c #ffc0c0",
"e c #c05800",
"f c #ff8000",
"c c #303030",
"b c #800000",
". c #ffdca8",
"h c #c00000",
"# c #ffffff",
"..#a..#...#...#.",
"#.bcba..#...#...",
".a.babad..#...#.",
"#aeaadbbfa..#...",
"..#...afbbbe..#.",
"#.aa#..ddbccbeg.",
"..fhd.#...fcccb#",
"#.accccbhd..fef.",
"..#bcccbbbhhd...",
"#..acchfhcccbbd#",
"..#.hc##bcceccc.",
"#...ab.#chb.eeca",
"..#...h.dhce.ebc",
"#...#.abcbbcccea",
"..#......ahhhha.",
"#...#...#.aaaa.."};
