/* XPM */
static char * gtksee_xpm[] = {
"48 48 256 2",
"  	c None",
". 	c #12163C",
"+ 	c #7A8E64",
"@ 	c #3A5224",
"# 	c #543110",
"$ 	c #8C5434",
"% 	c #D2D3CE",
"& 	c #C68F53",
"* 	c #C6B094",
"= 	c #1C3822",
"- 	c #987347",
"; 	c #3B391D",
"> 	c #C19F79",
", 	c #B2763C",
"' 	c #4F4518",
") 	c #E8AF7B",
"! 	c #B98343",
"~ 	c #38481B",
"{ 	c #DCA066",
"] 	c #6E7444",
"^ 	c #24471F",
"/ 	c #6F4429",
"( 	c #D7915A",
"_ 	c #EDBE97",
": 	c #8F643B",
"< 	c #392917",
"[ 	c #2E3810",
"} 	c #625214",
"| 	c #F4B18F",
"1 	c #C78449",
"2 	c #3A401F",
"3 	c #C4976A",
"4 	c #8A8264",
"5 	c #A6622C",
"6 	c #60451C",
"7 	c #0E2614",
"8 	c #EDA57B",
"9 	c #66623C",
"0 	c #663418",
"a 	c #E6B78E",
"b 	c #D29E6B",
"c 	c #C37639",
"d 	c #222A0C",
"e 	c #AB7545",
"f 	c #3E4854",
"g 	c #523C1E",
"h 	c #DCA879",
"i 	c #1D4029",
"j 	c #B3855D",
"k 	c #2E3F1C",
"l 	c #474814",
"m 	c #7F492B",
"n 	c #D4A778",
"o 	c #464117",
"p 	c #936C43",
"q 	c #7A542A",
"r 	c #D59651",
"s 	c #C39173",
"t 	c #4F4E17",
"u 	c #C39778",
"v 	c #B57B3D",
"w 	c #453919",
"x 	c #432914",
"y 	c #604D14",
"z 	c #768367",
"A 	c #D48A58",
"B 	c #1F3023",
"C 	c #9D5D37",
"D 	c #C0BFB3",
"E 	c #1D3736",
"F 	c #A56C38",
"G 	c #E5B7A9",
"H 	c #E5A879",
"I 	c #C0834B",
"J 	c #CA8A50",
"K 	c #A2A6A4",
"L 	c #5C3012",
"M 	c #E5B08A",
"N 	c #704C2B",
"O 	c #D3996E",
"P 	c #CC915E",
"Q 	c #967A54",
"R 	c #F4C6A9",
"S 	c #AA7C4F",
"T 	c #58662C",
"U 	c #8C5D39",
"V 	c #4E422C",
"W 	c #2D3832",
"X 	c #835C35",
"Y 	c #B16D38",
"Z 	c #9E967C",
"` 	c #E9EAE5",
" .	c #7C7B6F",
"..	c #213138",
"+.	c #3C4E1C",
"@.	c #D4A186",
"#.	c #5D3B18",
"$.	c #2E471D",
"%.	c #F1C0A7",
"&.	c #302F12",
"*.	c #3B3F31",
"=.	c #CD9866",
"-.	c #193122",
";.	c #83623E",
">.	c #C57C3B",
",.	c #B37B51",
"'.	c #E39F67",
").	c #996331",
"!.	c #ECB88F",
"~.	c #2D402E",
"{.	c #434E17",
"].	c #D3A78B",
"^.	c #464126",
"/.	c #EBB189",
"(.	c #D5AF84",
"_.	c #584311",
":.	c #F2B891",
"<.	c #674425",
"[.	c #DCA888",
"}.	c #9C6D3A",
"|.	c #5D3C28",
"1.	c #303136",
"2.	c #543620",
"3.	c #243928",
"4.	c #38392D",
"5.	c #3E4819",
"6.	c #A58359",
"7.	c #774B26",
"8.	c #ECCCA8",
"9.	c #FEFEFC",
"0.	c #BABABC",
"a.	c #8E8E84",
"b.	c #6A5E64",
"c.	c #525634",
"d.	c #1A1E0C",
"e.	c #DEBEAC",
"f.	c #B78E5E",
"g.	c #737B75",
"h.	c #5B6B54",
"i.	c #625A3C",
"j.	c #DABA8C",
"k.	c #666D4F",
"l.	c #6A3E22",
"m.	c #3E3121",
"n.	c #192141",
"o.	c #939782",
"p.	c #826B44",
"q.	c #838462",
"r.	c #757676",
"s.	c #1A2846",
"t.	c #B7966C",
"u.	c #48543C",
"v.	c #494C42",
"w.	c #5C6260",
"x.	c #C18A5F",
"y.	c #72532C",
"z.	c #AB8A5F",
"A.	c #1F2934",
"B.	c #604C34",
"C.	c #726440",
"D.	c #5C360C",
"E.	c #844E31",
"F.	c #4E4E3C",
"G.	c #D8B2A0",
"H.	c #BA9271",
"I.	c #585A2C",
"J.	c #835433",
"K.	c #E09963",
"L.	c #CC9A7A",
"M.	c #E29A6C",
"N.	c #BA8A54",
"O.	c #EBAA7E",
"P.	c #1A2F3C",
"Q.	c #B88A60",
"R.	c #BFC6B4",
"S.	c #2A4E1C",
"T.	c #A17449",
"U.	c #C9A073",
"V.	c #244022",
"W.	c #A07C56",
"X.	c #FEB694",
"Y.	c #AD8464",
"Z.	c #F4CAB4",
"`.	c #665434",
" +	c #AA7D67",
".+	c #743E20",
"++	c #D2DACC",
"@+	c #7E8A64",
"#+	c #3C4E48",
"$+	c #C18A52",
"%+	c #9B6E4F",
"&+	c #9A8254",
"*+	c #BC7438",
"=+	c #774528",
"-+	c #CD8F6C",
";+	c #BB7E42",
">+	c #674C1A",
",+	c #293025",
"'+	c #945C35",
")+	c #847E64",
"!+	c #3A3234",
"~+	c #4A311C",
"{+	c #212236",
"]+	c #D49265",
"^+	c #646459",
"/+	c #A7765A",
"(+	c #463727",
"_+	c #465A3C",
":+	c #945634",
"<+	c #F2BF99",
"[+	c #1A291C",
"}+	c #8A4A2C",
"|+	c #243738",
"1+	c #ECB99E",
"2+	c #ADAA99",
"3+	c #584534",
"4+	c #283037",
"5+	c #BC7D52",
"6+	c #DDB086",
"7+	c #726A44",
"8+	c #28293C",
"9+	c #6A4A2C",
"0+	c #9A765C",
"a+	c #DBA277",
"b+	c #61422D",
"c+	c #E5A275",
"d+	c #F2BA9D",
"e+	c #D8B8A8",
"f+	c #C8A088",
"g+	c #243F2D",
"h+	c #A27E68",
"i+	c #594D15",
"j+	c #5D532F",
"k+	c #6C5D3A",
"l+	c #AA947C",
"m+	c #989284",
"n+	c #584C3C",
"o+	c #52321E",
"p+	c #C49062",
"q+	c #B88550",
"r+	c #2F391F",
"s+	c #C88554",
"t+	c #A46440",
"u+	c #D4A076",
"v+	c #45471E",
"w+	c #7A5438",
"x+	c #D49961",
"y+	c #C29785",
"z+	c #A76B47",
"A+	c #D49A80",
"B+	c #B16E46",
"C+	c #322F21",
"D+	c #C47D49",
"E+	c #99653F",
"F+	c #C88A5E",
"G+	c #5E3620",
"-.= = B ,+&.&.&.d [+-.= = B B &.&.m.w w o l 5.~ 2 r+3.= = -.P.A.{+{+{+{+n.n.n.n.A.A.[+A.[+[+[+d.",
"= V.3.3.3.r+k [ [ [ 3.= = |+,+C+m.m.w w o ' l l 2 ~.3.3.|+|+..8+8+8+A.8+A.A.A.,+,+3.W 3.3.r+&.&.",
"B V.3.= 3.k k 2 k 2 2 k k 3.|+4+1.!+; (+w o o v+w 4.W |+3.|+3.1.1.1.1.W W W W r+*.; k 2 ; 2 ; ; ",
"-...E 3.E g+^ h.z z k.2 ^+g.r.r.g.r.r.v.w.r.n+4. .w.W ,+W g.g.g.4.*.2 *.2 2 o o 2 v+o 2 v+o o ; ",
"B 4+4+|+..#+% 9.9.9.9.2 D 9.9.9.9.9.9.r.9.` w.a.9.w.W W % 9.9.9.D v+l l v+o o ' o 2 5.2 ~ 2 2 k ",
"C+1.4+..f ` ` g.g+k u.*.; ; m+9.m+2 4.4.9.0.v.9.F.4.2  .9.q.l j+o o o 7+)+`.w ; 2 k.g._+k $.~ k ",
"m.!+!+8+% 9.f E |+|+3.W W W 0.9.)+o ^. .9.0.` g.; ; 2  .9.9.Z l o j+% % ` ` ; F.% % ` ` $.k k k ",
"m.g (+b.9.% W 4+w.r.f |+,+1.% 9.c.2 o q.9.` 9. .; w w j+D 9.9.q.o 2+9.k.% ` r+K 9.h.% ` k $.~ k ",
"r+o ^.)+9.% 4.4.0.9.^+~.~.3.9.9.~ ~ 5.9.9.q.` ` ; ~+w o ' ] 9.` ] 9.9.9.% v.w.9.9.9.% _+2 o o o ",
"V.~ 5.j+9.9.m+w ` 9.v+v+^.k.9.D ~ +.@ 9.9.~ o.9.r.; 9 m+5.l 9.R.@+9.` 2 4.%  .9.` 2 2 % t ' ' o ",
"^ ^ S.$.o.% 9.9.9.D _._.' 4 9.D 5.{.+ 9.++$.u.9.9.^+D 9.9.9.R.T T D 9.9.` 2+`.D 9.9.` 2+V o o 2 ",
"= i i V.^ ~ 5.l ' _._._._._._.' l v+~ ~ ^ ^ ^ ~.~.~.~.~ ~ +.l l i+y } y 6 6 _.3+' ' ^.4.*.*.~.W ",
"P.P.E E E g+k ~ ~ l 5.' ' ' ' ' o o 2 2 V.g+V.g+~.~.~.~ 5.l ' _.y >+y } } i+i+t v+*.4.W |+W g+= ",
"n.s.s.s.P.P.= ^ ^ S.~ S.+.5.l l l l o ; C+,+|+W g+~.~ ~ o g _._.6 y y t t {.+.5.~.W |+4+|+E E = ",
". . n.n.s.s.P.= i ^ ^ ^ $.$.$.+.~ ~ ~ k W 8+,+,+|+|+r+2 o o g g g l l 5.~ $.^ $.g+|+E ..E -.-.7 ",
"M 1+/./.O.) M 6+M 1+%.R R 8.R a !.a !.:.| O.H H h h n u+b =.=.x+=.P & $+$+s+I 5+I I I ! 5+;+v v ",
"/.!././.M M /.1+_ R R R a e._ _ _ M O.) /.) ) h h n U.b =.=.=.x+x+P F+F+s+I I D+D+5+5+I ! 5+;+5+",
"!././.) ) /.a ) u+p+j T.W.N.> j.8._ a /./.) ) n h b u+b b x+b b =.x+& x.F+s+I I I D+;+;+I I ;+;+",
"/.1+:.| O.'.r $+e }.}.T.T.W.p 6.(.a a a M [.h h h u+b u+O O x+x+p+P F+F+s+s+I 5+I ;+;+;+! ! ;+;+",
"!.| :.!.h x+! v e }.}.}.- }.: ;.W.t.U.n a M [.h u+a+a+{ b O u+=.=.p+p+s+q+s+I ;+;+;+v I I 5+! I ",
"_ :.:.:.H r & r & & $+N.q+W.).: X - z.t.n j.6+6+{ a+a+a+b =.U.=.=.=.p+x.q+s+s+I I v ;+I I ;+;+I ",
"d+d+:.!.a { { H ) H 6+H n 3 Y.e : : ;.- z.> ].6+[.h n u+=.=.=.=.P =.=.& x.x.s+1 I ;+;+I ;+v ;+I ",
"d+d+:.!.) { b { H ) !.:.<+a ) ]+5+%+J.y.X Q z.].n n n n b O L.=.=.u =.p+x.$+I 5+I I ;+! ;+v ;+I ",
"<+1+!.a ) h r x+{ '.c+/.:.d+d+d+8 s+z+E.9+`.;.&+t.> n u+U.@.{ b P P p+p+p+x.q+! s+$+I I I I ;+I ",
"<+d+d+!.) h r P P ]+K.'./.| X.| O.8 ]+B+m #.6 } 7+Q 6.f.H.=.u+U.U.s f.q+q+F+q+I q+I $+& I $+I I ",
"<+<+<+<+!.) x+J 1 s+F+x+H h O.O.8 8 M.J v '+7.L D.6 N w+U p j 3 U.L.3 p+p+x.p+q+s+N.$+q+I ;+;+;+",
"d+1+1+<+d+:.H P I >.;+s+r r { r 8 8 '.r ( >.F C .+0 L o+L b+y.;.&+u U.L.3 p+p+q+s+q+J $+! I ! ;+",
"d+d+1+1+<+<+) x+J v , v ! ! & ! & & P & 1 & 1 D+B+$ m l.|.|.o+_.N E+S H.=.3 p+p+& I q+q+$+1 I ;+",
"1+!.1+_ _ !.a a+P e '+).).}.T.U : : U U U ).z+e ,.z+z+t+$ E.l.#./ E.C e q+H.p+p+p+q+q+q+$+I 1 1 ",
"!.:.<+d+!.!./.M @.,.J.=+7.7.q 7.<.<.<.b+|.N / E.:+:+C t+E+t+$ m =+}+$ ).S $+H.3 f.$+$+$+I I I 1 ",
"a !._ <+_ _ a !.M =.%+/ L # #.<.# |.|.|.g |.# # G+G+l.m J.).E+).'+C :+'+}.q+p+=.p+x.f.$+I >.I 1 ",
"/.!.!._ _ 1+<+_ _ a n S / L # #.<.<.N y.b+2.g o+x x ~+o+# L q }.e B+F F e ! 3 L.p+& J s+D+I 1 J ",
"/.!.!.:._ !.<+%._ _ _ 6+f.q N q 6.z.H.y+h+N ;.(+< < x (+~+x L l.U e ! q+$+& =.u+=.-+I q+1 1 1 1 ",
"!.!.a !._ <+<+<+R R a n Q.z.;.X y+G.%.G s 0+h+|.2.3+n+3+3+|.l.L 0 q T.$+P x+=.u+L.O -+F+s+! v v ",
"!./.a a _ <+R :.!.<+<+a U.S f.: Y.@.G 1+G y+8.p.< ^.n+`.3+b+: U 0 D.y.}.q+P O u+a+a+A+O -+$+q+! ",
":.!.a a a <+_ <+_ a _ a 3 Q.H.U E+y+G Z.e.l+* )+i.`.k+`.B.6 p /+w+|.6 q p j P @.@.M A+A+=.p+f.f.",
":.:.!.!.a _ a !._ _ _ _ (.N.3 @.E+ +y+e+e+Z C.C.9 C.y.9+N ;.h+T.U b+g |.y.: e -+A+a+].].@.L.f.N.",
":././.a !.a a a M a <+_ a U.3 p+s /+h+y+G.* z.p.9+#.9+X p T.T.: y.|.2.# G+m '+,.p+b @.@.].f+s Q.",
"1+a a a a a a M ) a !._ !.) b x.@.s  +Y.H.y+> z.T.'+E+T.T.%+X / |.2.2.G+|.=+E.t+I =.n n ].f+y+x.",
"| :.!.!./.) ) a M ) ) !.<+!.6+u+@.[.L. +0+W.z.Q.6.W.0+%+U N b+g x |.l./ =+m :+Y 5+1 n ].].].A+x.",
"!.:./.a M M ) ) ) O.O.) !.:./.a @.G ].Q.h+- X N y./ 9+<.|.L G+|.G+/ =+m E.:+C *+>.;+=.n [.@.A+x.",
":.:.:./././.O.) O.) O.O.O.O./.!.1+G.].f+3 z.- q y.N 9+/ <.<.<.9+N m E.}+:+C B+>.1 I p+b ].[.A+F+",
"| !.!.!.M /.O.H H H 8 '.'.'.'.6+<+d+1+[.u+p+! }.}.: U J.X J.J.J.$ :+C C 5 Y c D+A J & O [.[.@.]+",
"/.| /./././.[.H 8 c+{ { K.{ x+{ M 1+d+<+) h =.v $+! S ,.z+B+e z+z+B+Y Y Y *+c D+1 ( F+=.a+[.a+3 ",
"/.:.:.:././.O.O.8 '.M.( ( ( -+b b H [.[.[.H (.b x+r & F+I >.c *+*+*+*+*+*+*+D+s+s+$+& =.a+[.@.p+",
"| | /./.| | /.O.O.c+M.( A 1 1 & p+=.u+@.{ h a+{ O P J 1 D+D+c c c *+*+c *+c D+F+P P O O h 6+n N.",
"| | :.1+!.!.M O.H c+K.( A A 1 1 J s+J F+]+x+x+P r ( s+1 >.>.c c c *+c c D+D+s+-+P P ]+O @.].@.N.",
"O.| | :.a a a M H c+'.( A A A J I s+D+1 s+s+s+1 s+1 1 D+>.c c *+*+*+>.D+5+I s+-+O P x+u+n h @.N."};
